<svg xmlns="http://www.w3.org/2000/svg" viewBox="0 0 36 36"><path d="M18 0C11.6 0 5.2 1.1 2.8 3.4.9 5.3.2 8.7 0 10.8v.3a1.54 1.54 0 0 0 1.5 1.5c.1 0 3.7-.3 5.9-.5h.2a1.54 1.54 0 0 0 1.5-1.5v-3C9 6.7 9.7 6 10.7 6h14.7c.8 0 1.6.7 1.6 1.7v3a1.54 1.54 0 0 0 1.5 1.5h.2l5.9.5a1.54 1.54 0 0 0 1.5-1.5v-.3c-.2-2.1-.9-5.5-2.8-7.4C30.8 1.1 24.4 0 18 0zm0 19.5c-1.7 0-3 1.3-3 3s1.3 3 3 3 3-1.3 3-3-1.3-3-3-3zm-2.3-6.8v-1.9c0-1-.8-1.9-1.9-1.9s-1.8.9-1.8 2v1.9L1.9 23.6a3.69 3.69 0 0 0-1.1 2.7v3c0 1.7 1.3 3 3 3h.8v1.9c0 1 .8 1.9 1.9 1.9s1.9-.8 1.9-1.9v-1.9h19.5v1.9c0 1 .8 1.9 1.9 1.9 1 0 1.9-.8 1.9-1.9v-1.9h.8c1.7 0 3-1.3 3-3v-3a3.69 3.69 0 0 0-1.1-2.7L24 12.7v-1.9c0-1-.8-1.9-1.9-1.9s-1.9.8-1.9 1.9v1.9h-4.5zm2.3 3.8a6.02 6.02 0 0 1 6 6 6.02 6.02 0 0 1-6 6 6.02 6.02 0 0 1-6-6 6.02 6.02 0 0 1 6-6z" fill="#010101"/></svg>